<?xml version="1.0" encoding="UTF-8"?>
<svg width="528px" height="304px" viewBox="0 0 528 304" version="1.1" xmlns="http://www.w3.org/2000/svg" xmlns:xlink="http://www.w3.org/1999/xlink">
    <!-- Generator: sketchtool 64 (101010) - https://sketch.com -->
    <title>FB0E6D4B-0ACD-4235-AA40-7002A8142F43</title>
    <desc>Created with sketchtool.</desc>
    <g id="Product-Page" stroke="none" stroke-width="1" fill="none" fill-rule="evenodd">
        <g id="UI/Web/Product-Page" transform="translate(-627.000000, -195.000000)">
            <g id="Group-2" transform="translate(627.000000, 195.000000)">
                <ellipse id="Oval" fill="#D9E6F1" opacity="0.800000012" cx="308.646691" cy="290.977143" rx="36.0032171" ry="12.7677108"></ellipse>
                <ellipse id="Oval" fill="#D9E6F1" opacity="0.800000012" cx="114.106899" cy="275.300449" rx="70.6746652" ry="7.75274427"></ellipse>
                <rect id="Rectangle" fill="#CAEFEE" x="33.7719839" y="254.813326" width="493.925716" height="3.09534034"></rect>
                <path d="M419.507752,14.355531 C419.507752,10.547945 417.995091,6.89632989 415.302579,4.20410205 C412.610067,1.5118742 408.958292,-0.00040177598 405.150706,-4.49840005e-15 L154.644797,-4.49840005e-15 C146.716456,-4.49840005e-15 140.289266,6.42719022 140.289266,14.355531 L140.289266,21.9067676 L419.507752,21.9067676 L419.507752,14.355531 Z" id="Path" fill="#19A5A3"></path>
                <path d="M140.286236,21.9067676 L140.286236,197.129091 C140.286236,205.057677 146.713181,211.486137 154.641767,211.486137 L405.150706,211.486137 C413.079884,211.486137 419.507752,205.058268 419.507752,197.129091 L419.507752,21.9067676 L140.286236,21.9067676 Z" id="Path" fill="#CAEFEE"></path>
                <rect id="Rectangle" fill="#FFFFFF" fill-rule="nonzero" x="160.63094" y="133.290537" width="13.167696" height="49.4557511"></rect>
                <rect id="Rectangle" fill="#FFFFFF" fill-rule="nonzero" x="183.752814" y="139.713027" width="13.167696" height="43.0332608"></rect>
                <rect id="Rectangle" fill="#FFFFFF" fill-rule="nonzero" x="206.876203" y="152.559523" width="13.167696" height="30.1882801"></rect>
                <rect id="Rectangle" fill="#FFFFFF" fill-rule="nonzero" x="229.998077" y="142.92503" width="13.167696" height="39.8227732"></rect>
                <rect id="Rectangle" fill="#FFFFFF" fill-rule="nonzero" x="253.121467" y="152.559523" width="13.167696" height="30.1882801"></rect>
                <rect id="Rectangle" fill="#FFFFFF" fill-rule="nonzero" x="276.243341" y="142.92503" width="13.167696" height="39.8227732"></rect>
                <rect id="Rectangle" fill="#FFFFFF" fill-rule="nonzero" x="155.812936" y="186.921891" width="138.734275" height="1.92720162"></rect>
                <path d="M266.839142,36.8637911 L405.440089,36.8637911 C406.959653,36.8637911 408.191503,38.0956414 408.191503,39.6152051 L408.191503,95.6464712 C408.191503,96.3765933 407.901463,97.0768115 407.385189,97.5930858 C406.868915,98.1093601 406.168696,98.3993999 405.438574,98.3993999 L266.839142,98.3993999 C266.10902,98.3993999 265.408802,98.1093601 264.892528,97.5930858 C264.376254,97.0768115 264.086214,96.3765933 264.086214,95.6464712 L264.086214,39.6152051 C264.086214,38.8852223 264.376302,38.1851598 264.89262,37.669126 C265.408938,37.1530923 266.10916,36.8637911 266.839142,36.8637911 Z" id="Path" fill="#FFFFFF" fill-rule="nonzero"></path>
                <path d="M404.332554,69.8095457 L404.332554,93.1980767 C404.330047,94.2426036 403.481698,95.0875614 402.43717,95.0858883 L269.317839,95.0858883 C268.816357,95.0866901 268.335095,94.8882482 267.979925,94.5342152 C267.624756,94.1801822 267.423969,93.6995587 267.423969,93.1980767 L267.423969,41.8242146 C279.717455,41.8242146 285.839957,46.4210147 289.427703,52.4586707 C289.662543,52.8450201 289.882232,53.2374298 290.082224,53.6419604 C296.154728,65.1309304 294.324492,80.8788342 307.67703,80.8788342 C308.152354,80.8817779 308.626031,80.8226956 309.086069,80.7030832 C309.368905,80.6444636 309.644331,80.5545183 309.90725,80.4349112 C318.888737,76.6471722 317.482728,49.8087684 333.463957,50.0011856 C336.877467,50.0436083 339.427373,51.3511358 341.43942,53.4404526 C341.631838,53.6495358 341.82577,53.858619 342.009096,54.0858834 C349.163378,62.4810282 349.263374,81.1894288 360.247817,84.5847581 C364.208277,85.8104705 367.705118,84.1499257 371.156506,81.4030573 C371.37468,81.2257911 371.600429,81.0515551 371.818603,80.8576229 C379.122879,74.7972404 386.386247,64.4294411 397.657043,66.9702565 C397.982789,67.0460113 398.311565,67.1217661 398.646401,67.2232775 C400.648702,67.827767 402.561071,68.6975813 404.332554,69.8095457 L404.332554,69.8095457 Z" id="Path" fill="#D9E6F1"></path>
                <path d="M404.332554,65.0869926 C401.941734,65.1218398 400.113013,65.9263556 398.646401,67.2278227 C395.929834,69.6322795 394.470797,73.7427339 393.040547,77.7592524 C390.902747,83.7726669 388.698283,89.9784985 382.248521,89.9784985 C381.904594,89.9784985 381.544001,89.9603174 381.175833,89.9269853 C376.972958,89.5163943 373.879133,86.0953084 371.153476,81.4076026 C369.459599,78.5061945 367.908141,75.1093501 366.330926,71.6306906 C361.870485,61.8431729 357.249443,51.7208191 348.745211,51.4799189 C348.645215,51.4799189 348.552794,51.4723434 348.460373,51.4723434 C345.884711,51.4723434 343.780243,52.4526103 342.003036,54.079823 C338.406199,57.3584899 336.115374,63.270393 333.877578,69.0565432 C330.564064,77.6198636 327.142978,86.4801427 319.419021,86.6513485 C313.86771,86.769526 311.343561,84.6711186 309.080008,80.6970228 C308.207313,79.1531403 307.369465,77.325935 306.411925,75.2426786 C304.66805,71.4185772 302.487827,66.6626921 298.8819,61.1280478 C296.457747,57.4221239 293.380587,55.0676653 290.076164,53.6404453 C281.170432,49.7572552 270.68294,52.5995746 267.417909,53.6662019 L267.417909,52.7844162 C270.922325,51.6768813 280.717418,49.1693981 289.421643,52.4571556 C293.221502,53.8919511 296.810764,56.4312514 299.572783,60.6750342 C303.221133,66.2521012 305.410447,71.0413184 307.172503,74.8896613 C308.16186,77.0532178 309.007284,78.9076948 309.899675,80.4333961 C312.029899,84.1150785 314.370722,85.9347083 319.40084,85.8165309 C326.562697,85.6498703 329.732277,77.4471427 333.095789,68.7610995 C335.376008,62.8643474 337.700164,56.8433574 341.428815,53.4389375 C343.40753,51.6359738 345.780169,50.5602559 348.758847,50.6451012 C357.799423,50.8890316 362.518946,61.2507705 367.091504,71.2837337 C368.650538,74.6881536 370.161088,78.0168186 371.812542,80.8606531 C374.429112,85.4059399 377.365368,88.7012729 381.254618,89.0876223 C387.896797,89.7421436 390.010356,83.7847876 392.251182,77.4728993 C393.64204,73.5336507 395.06623,69.5322832 397.650983,66.9732867 C399.293346,65.330923 401.415995,64.2900523 404.309828,64.2461146 L404.332554,65.0869926 Z" id="Path" fill="#288500"></path>
                <rect id="Rectangle" fill="#FFFFFF" fill-rule="nonzero" x="153.222122" y="37.7001243" width="91.1375466" height="6.68611695" rx="3.34305848"></rect>
                <rect id="Rectangle" fill="#FFFFFF" fill-rule="nonzero" x="153.222122" y="52.2132252" width="91.1375466" height="6.68611695" rx="3.34305848"></rect>
                <rect id="Rectangle" fill="#FFFFFF" fill-rule="nonzero" x="153.222122" y="66.7278412" width="91.1375466" height="6.68611695" rx="3.34305848"></rect>
                <rect id="Rectangle" fill="#FFFFFF" fill-rule="nonzero" x="153.222122" y="81.2409421" width="91.1375466" height="6.68611695" rx="3.34305848"></rect>
                <rect id="Rectangle" fill="#FFFFFF" fill-rule="nonzero" x="153.222122" y="95.7555581" width="91.1375466" height="6.68611695" rx="3.34305848"></rect>
                <path d="M387.272578,152.3565 C383.848462,137.188878 370.303507,125.855963 354.091984,125.855963 L354.091984,159.877435 L387.272578,152.3565 Z" id="Path" fill="#288500"></path>
                <path d="M354.096529,159.88198 L354.096529,125.860508 C335.309344,125.860508 320.075057,141.093279 320.075057,159.88198 C320.075057,178.670681 335.306313,193.901937 354.096529,193.901937 C372.886745,193.901937 388.121031,178.670681 388.121031,159.88198 C388.119107,157.351486 387.836068,154.829037 387.277123,152.361045 L354.096529,159.88198 Z" id="Path" fill="#FFFFFF" fill-rule="nonzero"></path>
                <circle id="Oval" fill="#D9E6F1" cx="354.096529" cy="160.453171" r="26.0035861"></circle>
                <circle id="Oval" fill="#FFFFFF" fill-rule="nonzero" cx="362.282591" cy="10.9556565" r="3.74228617"></circle>
                <circle id="Oval" fill="#FFFFFF" fill-rule="nonzero" cx="380.147083" cy="10.9556565" r="3.74228617"></circle>
                <circle id="Oval" fill="#FFFFFF" fill-rule="nonzero" cx="398.011576" cy="10.9556565" r="3.74228617"></circle>
                <path d="M77.1946242,257.292022 C77.1946242,257.292022 71.2993872,269.029468 60.8118953,273.391428 C50.3244035,277.753389 35.6188854,272.258137 27.3767653,265.778073 C19.1346451,259.298009 11.1288799,250.080167 10.3319396,243.216784 C9.5349993,236.353401 23.3617619,239.056332 23.3617619,239.056332 C23.3617619,239.056332 17.2498662,230.70967 14.7075357,224.746254 C12.1652053,218.782837 15.1438833,212.56337 23.4950903,216.261718 L31.8508426,219.966127 C31.8508426,219.966127 25.4435033,206.989333 25.5586505,198.885086 C25.6737978,190.78084 30.4508943,178.626743 39.4551075,187.211275 C48.4593208,195.795807 49.382014,213.793627 49.382014,213.793627 C49.382014,213.793627 51.3864855,206.122698 54.2378954,200.510784 C57.0893054,194.89887 63.0118142,195.627631 65.7435315,203.447039 C68.4752489,211.266448 69.52218,222.46452 69.52218,222.46452 C69.52218,222.46452 72.1326898,213.828475 76.3946537,215.192061 C80.6566177,216.555647 83.1413745,226.688606 82.4262494,236.624603 C81.7111242,246.5606 77.1946242,257.292022 77.1946242,257.292022 Z" id="Path" fill="#288500"></path>
                <path d="M75.3280264,236.279161 C75.3280264,236.279161 75.0159167,193.532254 42.2686401,178.305543 C42.2686401,178.305543 27.2813142,214.213309 50.0380504,244.990961 C72.7947865,275.768613 68.1358675,268.626453 68.1358675,268.626453 L75.3280264,236.279161 Z" id="Path" fill="#66BE3E"></path>
                <line x1="50.3531903" y1="198.30329" x2="68.9843211" y2="261.787311" id="Path" stroke="#FFFFFF" stroke-width="0.633093525" stroke-linecap="round" stroke-linejoin="round"></line>
                <rect id="Rectangle" fill="#76D5D4" x="57.1499092" y="162.983381" width="127.631655" height="23.6854898" rx="1.56206358"></rect>
                <ellipse id="Oval" fill="#FFFFFF" fill-rule="nonzero" cx="69.934286" cy="174.825368" rx="2.70293058" ry="3.16806493"></ellipse>
                <ellipse id="Oval" fill="#FFFFFF" fill-rule="nonzero" cx="81.2778069" cy="174.825368" rx="2.70293058" ry="3.16806493"></ellipse>
                <ellipse id="Oval" fill="#047A9C" cx="92.6198127" cy="174.825368" rx="2.70293058" ry="3.16806493"></ellipse>
                <rect id="Rectangle" fill="#D9E6F1" x="151.619151" y="168.83771" width="3.11503659" height="12.0844026" rx="0.280292689"></rect>
                <rect id="Rectangle" fill="#D9E6F1" x="156.75078" y="168.83771" width="3.11503659" height="12.0844026" rx="0.280292689"></rect>
                <rect id="Rectangle" fill="#D9E6F1" x="161.882409" y="168.83771" width="3.11503659" height="12.0844026" rx="0.280292689"></rect>
                <rect id="Rectangle" fill="#D9E6F1" x="167.015553" y="168.83771" width="3.11503659" height="12.0844026" rx="0.280292689"></rect>
                <rect id="Rectangle" fill="#19A5A3" x="62.1679059" y="186.668871" width="117.391123" height="4.26953945"></rect>
                <rect id="Rectangle" fill="#76D5D4" x="57.1499092" y="190.93841" width="127.631655" height="23.6854898" rx="1.56206358"></rect>
                <ellipse id="Oval" fill="#FFFFFF" fill-rule="nonzero" cx="69.934286" cy="202.781912" rx="2.70293058" ry="3.16806493"></ellipse>
                <ellipse id="Oval" fill="#047A9C" cx="81.2778069" cy="202.781912" rx="2.70293058" ry="3.16806493"></ellipse>
                <ellipse id="Oval" fill="#047A9C" cx="92.6198127" cy="202.781912" rx="2.70293058" ry="3.16806493"></ellipse>
                <rect id="Rectangle" fill="#D9E6F1" x="151.699451" y="196.712439" width="3.11503659" height="12.0844026" rx="0.280292689"></rect>
                <rect id="Rectangle" fill="#D9E6F1" x="156.83108" y="196.712439" width="3.11503659" height="12.0844026" rx="0.280292689"></rect>
                <rect id="Rectangle" fill="#D9E6F1" x="161.962709" y="196.712439" width="3.11503659" height="12.0844026" rx="0.280292689"></rect>
                <rect id="Rectangle" fill="#D9E6F1" x="167.015553" y="196.792739" width="3.11503659" height="12.0844026" rx="0.280292689"></rect>
                <rect id="Rectangle" fill="#19A5A3" x="62.1679059" y="214.6239" width="117.391123" height="4.26953945"></rect>
                <rect id="Rectangle" fill="#76D5D4" x="57.1499092" y="218.893439" width="127.631655" height="23.6854898" rx="1.56206358"></rect>
                <ellipse id="Oval" fill="#FFFFFF" fill-rule="nonzero" cx="69.934286" cy="230.736942" rx="2.70293058" ry="3.16806493"></ellipse>
                <ellipse id="Oval" fill="#FFFFFF" fill-rule="nonzero" cx="81.2778069" cy="230.736942" rx="2.70293058" ry="3.16806493"></ellipse>
                <ellipse id="Oval" fill="#047A9C" cx="92.6198127" cy="230.736942" rx="2.70293058" ry="3.16806493"></ellipse>
                <rect id="Rectangle" fill="#D9E6F1" x="151.699451" y="224.667469" width="3.11503659" height="12.0844026" rx="0.280292689"></rect>
                <rect id="Rectangle" fill="#D9E6F1" x="156.83108" y="224.667469" width="3.11503659" height="12.0844026" rx="0.280292689"></rect>
                <rect id="Rectangle" fill="#D9E6F1" x="161.962709" y="224.667469" width="3.11503659" height="12.0844026" rx="0.280292689"></rect>
                <rect id="Rectangle" fill="#D9E6F1" x="167.094338" y="224.667469" width="3.11503659" height="12.0844026" rx="0.280292689"></rect>
                <rect id="Rectangle" fill="#19A5A3" x="62.1679059" y="242.578929" width="117.391123" height="4.26953945"></rect>
                <rect id="Rectangle" fill="#76D5D4" x="57.1499092" y="246.848468" width="127.631655" height="23.6854898" rx="1.56206358"></rect>
                <ellipse id="Oval" fill="#FFFFFF" fill-rule="nonzero" cx="69.934286" cy="258.691971" rx="2.70293058" ry="3.16806493"></ellipse>
                <ellipse id="Oval" fill="#FFFFFF" fill-rule="nonzero" cx="81.2778069" cy="258.691971" rx="2.70293058" ry="3.16806493"></ellipse>
                <ellipse id="Oval" fill="#047A9C" cx="92.6198127" cy="258.691971" rx="2.70293058" ry="3.16806493"></ellipse>
                <rect id="Rectangle" fill="#D9E6F1" x="151.699451" y="252.622498" width="3.11503659" height="12.0844026" rx="0.280292689"></rect>
                <rect id="Rectangle" fill="#D9E6F1" x="156.83108" y="252.622498" width="3.11503659" height="12.0844026" rx="0.280292689"></rect>
                <rect id="Rectangle" fill="#D9E6F1" x="161.962709" y="252.622498" width="3.11503659" height="12.0844026" rx="0.280292689"></rect>
                <rect id="Rectangle" fill="#D9E6F1" x="167.094338" y="252.622498" width="3.11503659" height="12.0844026" rx="0.280292689"></rect>
                <rect id="Rectangle" fill="#19A5A3" x="62.1679059" y="270.533958" width="117.391123" height="4.26953945"></rect>
                <rect id="Rectangle" fill="#CAEFEE" opacity="0.600000024" x="471.75734" y="196.929098" width="32.9230277" height="14.5570387"></rect>
                <rect id="Rectangle" fill="#CAEFEE" opacity="0.300000012" x="485.070485" y="211.486137" width="32.9230277" height="14.5570387"></rect>
                <circle id="Oval" fill="#CAEFEE" opacity="0.200000003" cx="72.6372166" cy="49.1133396" r="40.4424473"></circle>
                <circle id="Oval" fill="#CAEFEE" cx="72.6372166" cy="49.1133396" r="37.0652991"></circle>
                <path d="M72.6372166,50.2723886 C72.3484047,50.2723886 72.07005,50.164298 71.8569424,49.9693686 L51.7440481,31.6791343 C51.4216342,31.404468 51.2744526,30.9759737 51.3600415,30.5611643 C51.4456305,30.146355 51.7503965,29.8111125 52.1551959,29.6864945 C52.5599954,29.5618765 53.0005365,29.6676755 53.3045965,29.962531 L72.6523676,47.5588515 L87.5351518,34.5517556 C88.0179647,34.1300264 88.751241,34.1795446 89.1729701,34.6623576 C89.5946993,35.1451705 89.5451811,35.8784468 89.0623682,36.3001759 L73.4008248,49.9860346 C73.1894552,50.1709601 72.9180625,50.2727324 72.6372166,50.2723886 L72.6372166,50.2723886 Z" id="Path" fill="#047A9C"></path>
                <rect id="Rectangle" fill="#047A9C" x="71.3736269" y="77.4744144" width="2.42869827" height="6.37552235"></rect>
                <rect id="Rectangle" fill="#047A9C" x="71.3736269" y="14.3752273" width="2.42869827" height="6.37552235"></rect>
                <rect id="Rectangle" fill="#047A9C" transform="translate(41.036867, 49.112582) rotate(90.000000) translate(-41.036867, -49.112582) " x="39.8225182" y="45.9248208" width="2.42869827" height="6.37552235"></rect>
                <rect id="Rectangle" fill="#054AA9" fill-rule="nonzero" transform="translate(104.136054, 49.112582) rotate(90.000000) translate(-104.136054, -49.112582) " x="102.921705" y="45.9248208" width="2.42869827" height="6.37552235"></rect>
                <line x1="72.6372166" y1="49.8466458" x2="82.4550362" y2="79.3728292" id="Path" stroke="#CA4644" stroke-width="0.633093525" stroke-linecap="round" stroke-linejoin="round"></line>
                <circle id="Oval" fill="#19A5A3" cx="72.6372166" cy="49.1133396" r="4.27559983"></circle>
                <circle id="Oval" fill="#FFB81C" cx="72.6372166" cy="49.1133396" r="2.51808891"></circle>
                <rect id="Rectangle" fill="#EA756C" fill-rule="nonzero" transform="translate(104.968031, 109.587919) rotate(17.990000) translate(-104.968031, -109.587919) " x="100.223509" y="88.8045944" width="9.48904384" height="41.5666482" rx="4.74376437"></rect>
                <path d="M97.933253,120.639488 C97.933253,120.639488 72.3538937,127.724076 70.2070032,126.948347 C68.0601127,126.172618 61.1967296,124.025727 57.1317281,128.054366 C53.0667265,132.083006 54.2378954,134.813208 60.5785706,133.393563 C66.9192457,131.973919 66.6662248,134.21929 71.1478776,131.717868 C71.1478776,131.717868 87.2275874,132.864795 101.433124,129.3725 L97.933253,120.639488 Z" id="Path" fill="#EA756C" fill-rule="nonzero"></path>
                <path d="M104.62543,73.6427376 L109.885842,75.3093428 C109.820933,76.4480994 109.930789,77.5900809 110.211588,78.6955815 C108.848002,79.0910214 106.798077,80.2637054 105.398129,83.6757008 C105.063293,82.1606051 104.302715,80.0076543 102.581566,78.1910546 L104.62543,73.6427376 Z" id="Path" fill="#EA756C" fill-rule="nonzero"></path>
                <path d="M93.1910037,60.6583682 C93.1910037,60.6583682 84.4034492,59.2947821 83.7625637,49.6345325 C83.7625637,49.6345325 87.8684728,50.8132768 92.3986087,50.1284536 C96.9287446,49.4436304 109.860086,40.1182169 117.868881,55.3752297 C125.877677,70.6322426 108.434381,77.372903 108.434381,77.372903 L103.366386,73.7745509 L93.1910037,60.6583682 Z" id="Path" fill="#0E2354" fill-rule="nonzero"></path>
                <path d="M90.469892,60.6023096 C90.469892,60.6023096 88.568447,55.6600677 94.0046101,56.1161115 C99.4407731,56.5721553 103.204271,61.209863 104.992083,64.7067036 C106.779896,68.2035443 112.176667,73.6790999 116.699227,72.4246007 L112.138789,77.9365186 L98.1105192,78.6622494 L92.0001386,65.4642514 L90.469892,60.6023096 Z" id="Path" fill="#07183A" fill-rule="nonzero"></path>
                <path d="M57.3392962,138.817606 L54.7636336,138.182781 C54.7636336,138.182781 53.1424813,141.750831 53.4000476,147.553647 C53.6576138,153.356463 56.5938691,158.045684 56.5938691,158.045684 C56.5938691,158.045684 60.267976,153.256467 60.3437308,150.114159 C60.4194856,146.97185 57.3392962,138.817606 57.3392962,138.817606 Z" id="Path" fill="#062F51" fill-rule="nonzero"></path>
                <path d="M19.2103999,179.569132 C20.4573236,178.8934 21.5754642,177.578297 22.9299596,176.293496 C30.3054451,169.298299 39.4535924,145.14616 43.8640358,142.029608 C48.2744791,138.913057 57.4726246,139.596365 57.4726246,139.596365 L61.2739995,147.508194 C61.2739995,147.508194 51.4501195,156.636645 43.7110111,166.515069 C35.6022194,176.864687 26.9101158,185.688604 26.9101158,185.688604 C24.8950386,185.446188 21.2133563,184.67349 19.2103999,179.569132 Z" id="Path" fill="#EA756C" fill-rule="nonzero"></path>
                <path d="M0.906529764,182.172067 C2.19890632,179.587314 4.32913076,179.360049 7.597192,179.967603 C10.1986112,180.452433 14.3590637,182.194793 19.2103999,179.569132 C21.2133563,184.67349 24.8950386,185.446188 26.9101158,185.691634 L26.9101158,185.691634 L21.8148493,194.641304 C20.9057919,196.438207 18.6195126,197.377566 16.8574564,196.404875 C12.8530587,194.192835 7.41386543,191.468693 4.02459654,189.927841 C-0.993400139,187.647622 -0.385846797,184.758335 0.906529764,182.172067 Z" id="Path" fill="#153077" fill-rule="nonzero"></path>
                <path d="M97.7938642,141.634168 L92.5258767,137.426748 L54.7636336,138.184296 C54.7636336,138.184296 61.7588301,142.8417 56.5817484,158.047199 C56.5817484,158.047199 70.4842657,162.010689 80.4111722,162.416735 C90.3380787,162.822781 110.211588,161.962206 114.262954,156.132118 L97.7938642,141.634168 Z" id="Path" fill="#06437F" fill-rule="nonzero"></path>
                <path d="M63.4360409,141.287212 L62.0542737,140.817532 C62.0542737,140.817532 60.2437345,143.664397 60.2816119,148.605123 C60.3194892,153.54585 61.5861092,158.997164 63.8799639,160.681951 L68.7964492,152.065602 L66.0980639,143.359862 L63.4360409,141.287212 Z" id="Path" fill="#153077" fill-rule="nonzero"></path>
                <path d="M32.9568624,193.404986 C33.061404,193.341352 33.1659456,193.282263 33.2704872,193.215599 C37.1218603,190.782355 40.1641723,163.822744 41.7853246,155.910914 C43.4064769,147.999085 48.4759868,143.847723 54.9666564,142.93412 C59.0987313,142.37831 63.2674469,142.141255 67.4358933,142.225056 L67.4358933,159.863799 C67.4358933,159.863799 55.1636189,157.430555 54.7636336,160.469837 C53.6485232,167.869564 40.7974822,196.760922 40.7974822,196.760922 L40.4262838,197.941182 C38.3445424,197.744219 35.4158626,196.794255 32.9568624,193.404986 Z" id="Path" fill="#FFACA6" fill-rule="nonzero"></path>
                <path d="M14.4151223,198.994173 C16.0362746,194.836751 18.5710295,194.635243 22.2208949,195.445819 C25.7707639,196.235184 29.2251819,195.674599 32.9568624,193.404986 C35.4158626,196.794255 38.3445424,197.744219 40.4232536,197.950272 L37.2051905,208.174138 C36.9763324,208.898563 36.4575153,209.495767 35.772193,209.823642 C35.0868708,210.151517 34.2963211,210.180747 33.5886573,209.904377 C30.4978622,208.707451 25.5586505,206.895397 23.0254107,206.495412 C19.180098,205.886343 12.7924549,203.150081 14.4151223,198.994173 Z" id="Path" fill="#153077" fill-rule="nonzero"></path>
                <path d="M98.7059518,144.259829 L93.4349341,140.052409 L62.058819,140.809956 C62.058819,140.809956 69.0555306,145.476451 63.8905696,160.689526 C63.8905696,160.689526 77.9809588,163.628811 87.9154408,164.034857 C97.8499227,164.440903 111.134281,164.587867 115.187162,158.763839 L98.7059518,144.259829 Z" id="Path" fill="#054AA9" fill-rule="nonzero"></path>
                <path d="M111.741834,83.9999312 L112.599379,83.156023 C112.599379,83.156023 116.075008,82.1757561 119.458216,88.7891485 C122.841425,95.4025408 130.483567,114.677587 126.529168,132.925399 C122.574768,151.17321 115.179586,158.756264 115.179586,158.756264 C115.179586,158.756264 92.5228466,158.756264 92.5228466,137.334327 C92.5228466,137.334327 104.831483,132.620865 103.895154,116.806297 C102.958825,100.991729 101.830079,99.9644937 105.664786,85.6029024 L111.741834,83.9999312 Z" id="Path" fill="#FFB81C"></path>
                <path d="M97.996887,111.16105 L105.907201,110.017153 L115.690174,96.9252119 C115.690174,96.9252119 119.971834,119.118332 112.608469,134.122324 C105.245104,149.126316 92.5258767,150.750499 92.5258767,150.750499 L88.6229904,133.02388 L97.996887,111.16105 Z" id="Path" fill="#FE8E00" fill-rule="nonzero"></path>
                <rect id="Rectangle" fill="#FFACA6" fill-rule="nonzero" transform="translate(106.062988, 111.941354) rotate(17.990000) translate(-106.062988, -111.941354) " x="101.318466" y="91.1580301" width="9.48904384" height="41.5666482" rx="4.74376437"></rect>
                <path d="M100.192261,122.689413 C100.192261,122.689413 74.6129013,129.774 72.4660108,128.998271 C70.3191203,128.222542 63.4557372,126.077167 59.3907356,130.105806 C55.3257341,134.134445 56.496903,136.864647 62.8390933,135.443488 C69.1812835,134.022328 68.9252323,136.27073 73.4068852,133.767792 C73.4068852,133.767792 88.2805788,135.226829 102.48763,131.734534 L100.192261,122.689413 Z" id="Path" fill="#FFACA6" fill-rule="nonzero"></path>
                <rect id="Rectangle" fill="#0E2354" fill-rule="nonzero" transform="translate(72.487980, 138.385046) rotate(-180.000000) translate(-72.487980, -138.385046) " x="54.5045523" y="136.458602" width="35.9668548" height="3.85288815" rx="1.16965382"></rect>
                <rect id="Rectangle" fill="#0E2354" fill-rule="nonzero" transform="translate(46.434971, 120.920147) rotate(63.920000) translate(-46.434971, -120.920147) " x="28.4515434" y="119.653527" width="35.9668548" height="2.53323987" rx="1.03481031"></rect>
                <path d="M110.211588,78.7031569 C110.603203,80.3711779 111.426685,81.9068449 112.599379,83.156023 C112.599379,83.156023 112.902398,85.8695592 110.052503,86.4725673 C107.202608,87.0755753 105.658726,85.6029024 105.658726,85.6029024 C105.628294,84.9562593 105.53904,84.3137308 105.392069,83.6832762 C106.798077,80.2712809 108.855577,79.0985969 110.211588,78.7031569 Z" id="Path" fill="#FFACA6" fill-rule="nonzero"></path>
                <path d="M92.2789162,60.0129374 C92.2789162,60.0129374 90.1577823,83.50601 97.219643,83.1939003 C104.281504,82.8817906 105.317829,75.1351068 105.317829,75.1351068 C105.317829,75.1351068 107.826827,74.4124062 107.287453,70.8776881 C106.748079,67.34297 104.246656,68.5201993 103.981515,68.9383657 C103.987575,68.9459412 99.3104749,57.6630241 92.2789162,60.0129374 Z" id="Path" fill="#FFACA6" fill-rule="nonzero"></path>
                <path d="M107.120793,75.0729878 C107.120793,75.0729878 107.779859,71.7534133 104.864815,72.0564325 C101.949771,72.3594516 101.696751,69.244415 99.390775,66.4308825 C97.0847995,63.6173499 95.3106225,60.7538192 91.5850024,62.2492186 L91.5092476,58.7266212 L100.201351,59.4099294 L107.776829,68.356569 L107.852584,73.8563661 L107.120793,75.0729878 Z" id="Path" fill="#EA756C" fill-rule="nonzero"></path>
                <path d="M295.275972,285.966722 C295.275972,285.966722 294.118439,289.052972 292.424562,290.630186 C282.946124,286.731845 274.267656,280.618435 271.022321,278.206402 C271.208678,277.473096 271.588967,276.674641 272.11622,275.806491 C273.099518,274.183823 275.853961,269.467331 277.737225,266.226541 C278.52053,267.826482 280.58712,270.493051 285.97177,272.114203 C284.221834,276.182235 289.759509,280.262387 292.835153,282.265343 C295.985037,284.321328 295.275972,285.966722 295.275972,285.966722 Z" id="Path" fill="#1E2889" fill-rule="nonzero"></path>
                <path d="M288.451981,267.424982 C288.451981,267.424982 288.300472,267.63558 286.118734,271.805123 C286.065706,271.90815 286.014193,272.012691 285.967225,272.117233 C280.582575,270.496081 278.515984,267.829512 277.73268,266.229571 C278.822034,264.353883 279.623519,262.976661 279.623519,262.976661 L288.451981,267.424982 Z" id="Path" fill="#EA756C" fill-rule="nonzero"></path>
                <path d="M292.424562,290.630186 C292.04938,291.001584 291.59367,291.281543 291.092793,291.448338 C288.703487,292.149827 274.541889,283.362273 272.4253,281.841117 C271.025352,280.838123 270.660214,279.644228 271.022321,278.204887 C274.267656,280.618435 282.946124,286.731845 292.424562,290.630186 Z" id="Path" fill="#0E2354" fill-rule="nonzero"></path>
                <path d="M339.61373,285.245537 C339.61373,285.245537 339.939476,288.525719 339.118294,290.69079 C328.892914,291.386219 318.405422,289.73931 314.422235,289.015094 C314.268161,288.144842 314.241113,287.256845 314.341935,286.378828 C314.507081,284.487989 314.8904,279.039705 315.147966,275.300449 C316.557005,276.389803 319.590226,277.867021 325.136992,276.939782 C325.365771,281.360831 332.139763,282.571393 335.782053,283.000165 C339.521309,283.456209 339.61373,285.245537 339.61373,285.245537 Z" id="Path" fill="#1E2889" fill-rule="nonzero"></path>
                <path d="M325.293046,271.633918 C325.293046,271.633918 325.250624,271.889969 325.141537,276.594341 C325.141537,276.711003 325.141537,276.82615 325.149112,276.939782 C319.602347,277.867021 316.569126,276.389803 315.160087,275.300449 C315.311596,273.136892 315.416138,271.546042 315.416138,271.546042 L325.293046,271.633918 Z" id="Path" fill="#FFACA6" fill-rule="nonzero"></path>
                <path d="M339.118294,290.68473 C338.945739,291.183743 338.660607,291.636326 338.284991,292.007408 C336.453241,293.692195 319.864459,292.072557 317.294857,291.6453 C315.594919,291.365008 314.73889,290.45595 314.429811,289.009034 C318.405422,289.73931 328.892914,291.386219 339.118294,290.68473 Z" id="Path" fill="#0E2354" fill-rule="nonzero"></path>
                <polygon id="Path" fill="#FFB81C" points="355.864646 99.3326988 334.285139 91.0996693 323.491598 130.530033 343.140873 139.620606"></polygon>
                <path d="M317.166074,67.9217365 C317.166074,67.9217365 317.540302,81.0197381 315.481287,84.5741525 C313.422272,88.1285668 310.329962,86.9134601 309.02698,82.9833021 L309.02698,70.1671082 L317.166074,67.9217365 Z" id="Path" fill="#FFACA6" fill-rule="nonzero"></path>
                <path d="M317.743325,69.1944169 C317.743325,69.1944169 313.013196,72.6336839 311.314774,75.3396447 C310.045124,77.3607822 310.6148,85.8801649 310.6148,85.8801649 L307.478552,84.4120372 C307.478552,84.4120372 307.378556,78.5228606 307.478552,75.5002448 C307.578548,72.4776291 309.66635,68.3005104 309.66635,68.3005104 C309.66635,68.3005104 312.545032,65.1582021 314.043461,64.6900376 C315.541891,64.221873 316.628215,64.6900376 316.628215,64.6900376 L317.743325,69.1944169 Z" id="Path" fill="#EA756C" fill-rule="nonzero"></path>
                <path d="M310.652677,84.4802165 C310.652677,84.4802165 309.479993,90.7875596 311.178416,95.388905 C311.178416,95.388905 309.804224,97.8963882 306.936148,98.0569883 C304.068072,98.2175885 302.61055,95.9555507 302.61055,95.9555507 C302.61055,95.9555507 303.378703,92.9632369 302.61055,88.0770535 L310.652677,84.4802165 Z" id="Path" fill="#EA756C" fill-rule="nonzero"></path>
                <path d="M289.673148,124.327231 C289.673148,124.327231 284.370314,129.933085 286.617201,133.495075 C288.864087,137.057065 291.232182,141.478114 291.232182,141.478114 L290.795834,151.268661 C290.795834,151.268661 278.697796,138.172175 277.88722,133.805669 C277.076644,129.439164 279.882601,124.015122 282.56432,119.898607 L289.673148,124.327231 Z" id="Path" fill="#EA756C" fill-rule="nonzero"></path>
                <path d="M309.307273,190.565696 L309.307273,218.263159 C309.307273,218.263159 304.630172,238.844218 297.894057,253.623976 C291.157942,268.403734 289.8489,269.53248 289.8489,269.53248 C289.8489,269.53248 281.061345,270.280937 276.564541,263.919051 C276.564541,263.919051 290.411,228.744591 290.597357,215.648104 C290.783714,202.551618 287.603528,182.344788 290.597357,171.861841 C290.831601,170.592257 291.274442,169.370219 291.907915,168.245308 L305.37863,169.616469 L309.307273,190.565696 Z" id="Path" fill="#006DFE" fill-rule="nonzero"></path>
                <path d="M287.829277,172.928468 C287.829277,172.928468 296.022914,194.079203 296.959243,207.472648 C297.895572,220.866094 299.033409,242.277425 294.721447,262.352442 L312.498064,221.52516 L312.498064,186.268885 L305.377115,169.602834 L289.847384,166.677184 L287.829277,172.928468 Z" id="Path" fill="#0041F9" fill-rule="nonzero"></path>
                <path d="M322.529512,169.610409 L325.023359,170.481589 C325.023359,170.481589 327.64296,193.185297 328.579289,209.837713 C329.515618,226.490129 327.268731,271.112725 327.268731,271.112725 C327.268731,271.112725 319.411445,276.35344 312.488973,271.112725 C312.488973,271.112725 313.423787,243.327386 311.178416,231.103595 C308.933044,218.879803 295.586567,175.841997 296.210786,170.481589 L322.529512,169.610409 Z" id="Path" fill="#006DFE" fill-rule="nonzero"></path>
                <path d="M310.992059,171.05278 C310.992059,171.05278 309.307273,178.293422 313.235915,194.34586 C317.164558,210.398298 319.037217,222.322101 319.223573,235.500402 C319.40993,248.678704 316.978202,277.586728 316.978202,277.586728 L310.992059,276.609492 L291.227637,174.946576 L299.390972,160.192575 L310.992059,171.05278 Z" id="Path" fill="#0054FC" fill-rule="nonzero"></path>
                <path d="M311.178416,95.3964804 C311.178416,95.3964804 322.390123,99.6902614 323.508264,105.490047 C324.626404,111.289833 325.023359,170.487649 325.023359,170.487649 C325.023359,170.487649 317.166074,176.602575 304.442301,175.229899 C291.718528,173.857222 290.971585,169.118003 290.971585,169.118003 C290.971585,169.118003 290.847348,129.328562 291.595805,126.210495 C291.595805,126.210495 285.10968,126.210495 281.747683,120.284956 C281.747683,120.284956 288.841361,103.414366 291.413993,98.7705984 C294.625996,92.9692973 302.61358,94.5525722 302.61358,94.5525722 C302.61358,94.5525722 305.245301,99.4478461 311.178416,95.3964804 Z" id="Path" fill="#1E2889" fill-rule="nonzero"></path>
                <g id="Group" transform="translate(267.216401, 90.540599)" fill="#202D70" fill-rule="nonzero">
                    <path d="M49.9890647,14.6009764 C49.9890647,14.6009764 46.7891828,12.7919523 46.1043596,15.8479001 C45.4195364,18.903848 41.2196913,42.0439033 48.8739544,51.5844604 C56.5282174,61.1250175 58.7644986,58.0084658 60.7280625,52.6450274 C62.6916264,47.2815889 55.2464465,17.6569243 49.9890647,14.6009764 Z" id="Path"></path>
                    <path d="M37.1016614,3.80743528 C37.1016614,3.80743528 33.4851282,3.12867245 32.9851467,13.6555568 C32.4851651,24.1824411 33.609366,87.4604095 34.7320519,89.1270147 C35.8547377,90.7936199 21.2370952,82.9333038 21.2370952,82.9333038 C21.2370952,82.9333038 -1.06662731,25.3066421 0.0560585378,23.6854898 C1.17874439,22.0643375 34.7320519,0.11060198 34.7320519,0.11060198 L37.1016614,3.80743528 Z" id="Path"></path>
                </g>
                <path d="M327.827801,125.460523 C327.827801,125.460523 328.823219,133.778398 330.668606,136.272245 C332.513992,138.766092 347.53162,127.010466 347.53162,127.010466 C347.53162,127.010466 347.237691,116.972957 353.510187,112.988256 C359.782683,109.003554 355.207094,124.722671 352.623856,128.928577 C352.623856,128.928577 343.10451,142.138695 334.026058,146.049157 C324.947605,149.959619 323.864311,145.606749 322.376487,143.321985 C320.888663,141.037221 318.306941,127.675593 318.306941,127.675593 L327.827801,125.460523 Z" id="Path" fill="#FFACA6" fill-rule="nonzero"></path>
                <path d="M328.806553,129.130084 C328.806553,129.130084 321.967412,129.710366 322.862833,133.996571 C323.758255,138.282777 323.259788,144.378007 330.173169,144.396188 C337.086551,144.414369 341.933342,140.726626 341.933342,140.726626 L335.698723,148.509672 L326.30513,148.509672 L319.985666,145.643111 C319.985666,145.643111 315.861576,135.519243 315.861576,134.885933 C315.861576,134.252623 317.202436,126.496848 317.202436,126.496848 L327.438422,124.213599 L329.056544,127.689228 L328.806553,129.130084 Z" id="Path" fill="#EA756C" fill-rule="nonzero"></path>
                <path d="M328.303541,125.010539 C328.303541,125.010539 326.411187,109.242939 324.0037,104.299182 C321.596213,99.3554253 315.822184,99.7538954 314.072248,104.299182 C312.322313,108.844469 312.605636,128.633133 312.605636,128.633133 C312.605636,128.633133 322.214372,133.402654 328.303541,125.010539 Z" id="Path" fill="#1E2889" fill-rule="nonzero"></path>
                <path d="M316.838813,68.5368654 C316.838813,68.5368654 319.082669,66.5172429 319.565985,62.7295039 C320.0493,58.9417648 320.818969,52.2056497 315.293415,51.3147735 C309.767862,50.4238973 309.337574,53.0298617 306.88615,53.3874243 C304.434725,53.7449869 292.062454,53.208643 288.379257,64.1991466 C285.827836,71.8140172 291.360965,79.3046499 295.816861,83.8499367 C300.272757,88.3952236 300.628805,88.528552 300.628805,88.528552 C300.628805,88.528552 303.810506,89.5891189 307.758845,88.0391761 L309.879979,84.8241432 C309.879979,84.8241432 310.637527,83.8726632 309.807254,81.4909329 C308.976982,79.1092026 308.813351,76.8865573 309.852707,75.5199411 C310.892063,74.1533248 312.064747,71.7185662 312.12535,69.7625777 C312.131411,69.7550022 314.210122,70.5867897 316.838813,68.5368654 Z" id="Path" fill="#0E2354" fill-rule="nonzero"></path>
                <rect id="Rectangle" fill="#76D5D4" opacity="0.600000024" x="369.308089" y="55.569162" width="144.014384" height="100.346298" rx="8.74967718"></rect>
                <path d="M513.322473,64.1688447 C513.321636,59.419126 509.470994,55.569162 504.721275,55.569162 L380.047087,55.569162 C375.300572,55.5733432 371.45498,59.4223279 371.45498,64.1688447 L371.45498,69.3428962 L513.330048,69.3428962 L513.322473,64.1688447 Z" id="Path" fill="#19A5A3"></path>
                <path d="M371.45498,69.3428962 L371.45498,145.361304 C371.45498,150.110777 375.305189,153.960986 380.054662,153.960986 L504.72885,153.960986 C509.478569,153.960986 513.330048,150.111022 513.330048,145.361304 L513.330048,69.3428962 L371.45498,69.3428962 Z" id="Path" fill="#ECFFFE"></path>
                <circle id="Oval" fill="#FFFFFF" fill-rule="nonzero" cx="471.05282" cy="62.4552716" r="2.88625715"></circle>
                <circle id="Oval" fill="#FFFFFF" fill-rule="nonzero" cx="484.778071" cy="62.4552716" r="2.88625715"></circle>
                <circle id="Oval" fill="#FFFFFF" fill-rule="nonzero" cx="498.503322" cy="62.4552716" r="2.88625715"></circle>
                <path d="M426.808998,79.9349297 L399.856962,79.9349297 C399.308497,79.9349297 398.864574,79.4122217 398.864574,78.766791 L398.864574,78.766791 C398.864574,78.1228753 399.308497,77.6001673 399.856962,77.6001673 L426.808998,77.6001673 C427.355947,77.6001673 427.79987,78.1228753 427.79987,78.766791 L427.79987,78.766791 C427.79987,79.4182821 427.362008,79.9349297 426.808998,79.9349297 Z" id="Path" fill="#CAEFEE"></path>
                <path d="M422.362192,90.4012102 L395.413187,90.4012102 C394.864722,90.4012102 394.420799,89.8785022 394.420799,89.2345866 L394.420799,89.2345866 C394.420799,88.5891558 394.864722,88.0664478 395.413187,88.0664478 L422.362192,88.0664478 C422.909142,88.0664478 423.354595,88.5891558 423.354595,89.2345866 L423.354595,89.2345866 C423.35761,89.8785022 422.912172,90.4012102 422.362192,90.4012102 Z" id="Path" fill="#19A5A3"></path>
                <path d="M479.519174,90.4012102 L433.236034,90.4012102 C432.689084,90.4012102 432.243646,89.8785022 432.243646,89.2345866 L432.243646,89.2345866 C432.243646,88.5891558 432.689084,88.0664478 433.236034,88.0664478 L479.519174,88.0664478 C480.067639,88.0664478 480.511562,88.5891558 480.511562,89.2345866 L480.511562,89.2345866 C480.511562,89.8785022 480.067639,90.4012102 479.519174,90.4012102 Z" id="Path" fill="#CAEFEE"></path>
                <path d="M450.112684,79.9349297 L436.491974,79.9349297 C435.943509,79.9349297 435.499586,79.4122217 435.499586,78.766791 L435.499586,78.766791 C435.499586,78.1228753 435.943509,77.6001673 436.491974,77.6001673 L450.112684,77.6001673 C450.661148,77.6001673 451.105071,78.1228753 451.105071,78.766791 L451.105071,78.766791 C451.105071,79.4182821 450.661148,79.9349297 450.112684,79.9349297 Z" id="Path" fill="#CAEFEE"></path>
                <path d="M474.026953,79.9349297 L460.404728,79.9349297 C459.857779,79.9349297 459.413856,79.4122217 459.413856,78.766791 L459.413856,78.766791 C459.413856,78.1228753 459.857779,77.6001673 460.404728,77.6001673 L474.026953,77.6001673 C474.573902,77.6001673 475.017825,78.1228753 475.017825,78.766791 L475.017825,78.766791 C475.014795,79.4182821 474.570872,79.9349297 474.026953,79.9349297 Z" id="Path" fill="#CAEFEE"></path>
                <path d="M413.445855,100.86143 L395.738932,100.86143 C395.191983,100.86143 394.74806,100.338722 394.74806,99.6948067 L394.74806,99.6948067 C394.74806,99.049376 395.191983,98.526668 395.738932,98.526668 L413.445855,98.526668 C413.992804,98.526668 414.436727,99.049376 414.436727,99.6948067 L414.436727,99.6948067 C414.436727,100.338722 413.992804,100.86143 413.445855,100.86143 Z" id="Path" fill="#CAEFEE"></path>
                <path d="M450.164197,100.86143 L423.212161,100.86143 C422.663696,100.86143 422.219773,100.338722 422.219773,99.6948067 L422.219773,99.6948067 C422.219773,99.049376 422.663696,98.526668 423.212161,98.526668 L450.164197,98.526668 C450.712661,98.526668 451.156584,99.049376 451.156584,99.6948067 L451.156584,99.6948067 C451.156584,100.338722 450.712661,100.86143 450.164197,100.86143 Z" id="Path" fill="#19A5A3"></path>
                <path d="M469.818017,100.86143 L459.753237,100.86143 C459.204772,100.86143 458.760849,100.338722 458.760849,99.6948067 L458.760849,99.6948067 C458.760849,99.049376 459.204772,98.526668 459.753237,98.526668 L469.818017,98.526668 C470.366482,98.526668 470.810405,99.049376 470.810405,99.6948067 L470.810405,99.6948067 C470.810405,100.338722 470.366482,100.86143 469.818017,100.86143 Z" id="Path" fill="#CAEFEE"></path>
                <path d="M430.116452,111.323166 L414.332186,111.323166 C413.783721,111.323166 413.339798,110.800458 413.339798,110.155027 L413.339798,110.155027 C413.339798,109.511111 413.783721,108.988403 414.332186,108.988403 L430.124027,108.988403 C430.670977,108.988403 431.1149,109.511111 431.1149,110.155027 L431.1149,110.155027 C431.107324,110.800458 430.663401,111.323166 430.116452,111.323166 Z" id="Path" fill="#CAEFEE"></path>
                <path d="M467.887785,111.323166 L440.935749,111.323166 C440.387285,111.323166 439.943362,110.800458 439.943362,110.155027 L439.943362,110.155027 C439.943362,109.511111 440.387285,108.988403 440.935749,108.988403 L467.887785,108.988403 C468.434735,108.988403 468.880173,109.511111 468.880173,110.155027 L468.880173,110.155027 C468.875628,110.800458 468.434735,111.323166 467.887785,111.323166 Z" id="Path" fill="#CAEFEE"></path>
                <path d="M459.24871,121.783386 L408.744513,121.783386 C408.196048,121.783386 407.752125,121.260678 407.752125,120.616762 L407.752125,120.616762 C407.752125,119.971331 408.196048,119.448623 408.744513,119.448623 L459.24871,119.448623 C459.79566,119.448623 460.239583,119.971331 460.239583,120.616762 L460.239583,120.616762 C460.239583,121.260678 459.79566,121.783386 459.24871,121.783386 Z" id="Path" fill="#CAEFEE"></path>
                <path d="M497.020044,121.783386 L466.512079,121.783386 C465.965129,121.783386 465.521206,121.260678 465.521206,120.616762 L465.521206,120.616762 C465.521206,119.971331 465.965129,119.448623 466.512079,119.448623 L497.020044,119.448623 C497.566993,119.448623 498.012432,119.971331 498.012432,120.616762 L498.012432,120.616762 C498.012432,121.260678 497.566993,121.783386 497.020044,121.783386 Z" id="Path" fill="#CAEFEE"></path>
                <path d="M422.362192,132.245121 L395.413187,132.245121 C394.864722,132.245121 394.420799,131.722413 394.420799,131.076982 L394.420799,131.076982 C394.420799,130.433067 394.864722,129.910359 395.413187,129.910359 L422.362192,129.910359 C422.909142,129.910359 423.354595,130.433067 423.354595,131.076982 L423.354595,131.076982 C423.35761,131.722413 422.912172,132.245121 422.362192,132.245121 Z" id="Path" fill="#CAEFEE"></path>
                <path d="M454.980686,132.245121 L428.02865,132.245121 C427.480185,132.245121 427.036262,131.722413 427.036262,131.076982 L427.036262,131.076982 C427.036262,130.433067 427.480185,129.910359 428.02865,129.910359 L454.980686,129.910359 C455.527635,129.910359 455.973073,130.433067 455.973073,131.076982 L455.973073,131.076982 C455.973073,131.722413 455.527635,132.245121 454.980686,132.245121 Z" id="Path" fill="#19A5A3"></path>
                <path d="M457.576045,142.705341 L416.639676,142.705341 C416.091212,142.705341 415.647289,142.182633 415.647289,141.538717 L415.647289,141.538717 C415.647289,140.893287 416.091212,140.370579 416.639676,140.370579 L457.576045,140.370579 C458.122994,140.370579 458.566977,140.893287 458.566977,141.538717 L458.566977,141.538717 C458.572978,142.182633 458.118449,142.705341 457.576045,142.705341 Z" id="Path" fill="#CAEFEE"></path>
                <rect id="Rectangle" fill="#CAEFEE" x="381.247043" y="77.6062277" width="1.98326016" height="2.33476234"></rect>
                <rect id="Rectangle" fill="#CAEFEE" x="381.247043" y="88.0664478" width="1.98326016" height="2.33476234"></rect>
                <rect id="Rectangle" fill="#CAEFEE" x="381.247043" y="98.526668" width="1.98326016" height="2.33476234"></rect>
                <rect id="Rectangle" fill="#CAEFEE" x="381.247043" y="108.988403" width="1.98326016" height="2.33476234"></rect>
                <rect id="Rectangle" fill="#CAEFEE" x="381.247043" y="119.448623" width="1.98326016" height="2.33476234"></rect>
                <rect id="Rectangle" fill="#CAEFEE" x="381.247043" y="129.910359" width="1.98326016" height="2.33476234"></rect>
                <rect id="Rectangle" fill="#CAEFEE" x="381.247043" y="140.370579" width="1.98326016" height="2.33476234"></rect>
                <path d="M486.602246,147.467287 L479.373725,143.852268 C479.137305,143.720136 478.994607,143.466906 479.004042,143.196232 L479.004042,142.418988 C478.995302,142.148484 479.13781,141.895591 479.373725,141.762952 L486.602246,138.149449 C487.002232,137.949456 487.446155,138.300958 487.446155,138.805485 L487.446155,139.082747 C487.455424,139.356161 487.310154,139.611555 487.070411,139.743329 L482.105443,142.147786 C481.605461,142.390201 481.605461,143.225019 482.105443,143.467434 L487.070411,145.873406 C487.310426,146.004147 487.455912,146.259333 487.446155,146.532473 L487.446155,146.809735 C487.443124,147.321837 486.999201,147.667279 486.602246,147.467287 Z" id="Path" fill="#CAEFEE"></path>
                <path d="M493.15352,136.108615 L489.82031,149.699022 C489.768393,149.984364 489.528041,150.197175 489.238513,150.214155 L489.238513,150.214155 C488.833982,150.214155 488.543084,149.759626 488.655201,149.305098 L491.988411,135.716205 C492.040972,135.430627 492.281837,135.217914 492.571723,135.201057 L492.571723,135.201057 C492.974739,135.198042 493.268667,135.652571 493.15352,136.108615 Z" id="Path" fill="#CAEFEE"></path>
                <path d="M502.433481,143.852268 L495.203444,147.467287 C494.804974,147.667279 494.361051,147.315777 494.361051,146.809735 L494.361051,146.532473 C494.351294,146.259333 494.496779,146.004147 494.736795,145.873406 L499.700248,143.467434 C500.20023,143.225019 500.20023,142.390201 499.700248,142.147786 L494.736795,139.743329 C494.497052,139.611555 494.351782,139.356161 494.361051,139.082747 L494.361051,138.805485 C494.361051,138.294898 494.804974,137.949456 495.203444,138.149449 L502.433481,141.762952 C502.66831,141.89649 502.810004,142.148974 502.801649,142.418988 L502.801649,143.196232 C502.811037,143.466498 502.669063,143.71948 502.433481,143.852268 L502.433481,143.852268 Z" id="Path" fill="#CAEFEE"></path>
            </g>
        </g>
    </g>
</svg>